<?xml version="1.0" standalone="no"?>
<!DOCTYPE svg PUBLIC "-//W3C//DTD SVG 20010904//EN"
 "http://www.w3.org/TR/2001/REC-SVG-20010904/DTD/svg10.dtd">
<svg version="1.0" xmlns="http://www.w3.org/2000/svg"
 width="512.000000pt" height="512.000000pt" viewBox="0 0 512.000000 512.000000"
 preserveAspectRatio="xMidYMid meet">
<metadata>
Created by potrace 1.10, written by Peter Selinger 2001-2011
</metadata>
<g transform="translate(0.000000,512.000000) scale(0.100000,-0.100000)"
fill="#3b50c4" stroke="none">
<path d="M2819 5097 c-51 -33 -69 -78 -69 -168 0 -107 8 -136 47 -175 29 -29
40 -34 82 -34 61 0 111 32 128 80 19 55 16 199 -5 240 -21 43 -75 80 -117 80
-18 0 -47 -10 -66 -23z"/>
<path d="M2260 4928 c-13 -7 -35 -29 -47 -47 -20 -30 -23 -46 -23 -138 0 -118
12 -152 63 -183 63 -39 148 -15 182 51 13 25 16 55 13 145 -3 112 -3 114 -35
145 -24 25 -42 33 -80 36 -28 2 -58 -2 -73 -9z"/>
<path d="M3390 4927 c-13 -7 -35 -28 -47 -46 -20 -30 -23 -46 -23 -138 0 -118
12 -152 63 -183 61 -38 140 -18 177 43 17 26 20 51 20 138 0 94 -3 110 -23
140 -27 41 -60 59 -107 59 -19 0 -46 -6 -60 -13z"/>
<path d="M2730 4391 c-98 -31 -163 -72 -235 -145 -82 -83 -118 -145 -145 -252
-60 -235 34 -470 242 -605 311 -201 738 -28 832 337 73 284 -102 581 -393 668
-75 22 -229 21 -301 -3z m286 -274 c180 -91 213 -331 65 -470 -65 -61 -122
-81 -215 -75 -56 4 -85 11 -117 31 -100 58 -153 148 -153 257 0 131 81 237
214 281 47 16 152 4 206 -24z"/>
<path d="M3950 3147 c-81 -23 -113 -45 -386 -256 l-269 -209 -31 68 c-36 78
-107 159 -171 197 -78 46 -130 53 -380 53 -222 0 -237 1 -351 29 -238 58 -349
63 -502 20 -84 -23 -195 -76 -254 -121 -23 -17 -204 -193 -402 -391 l-361
-359 -43 31 c-48 35 -102 41 -148 17 -15 -8 -149 -137 -298 -288 -287 -288
-294 -298 -279 -371 6 -25 100 -125 453 -480 316 -316 456 -450 480 -458 77
-25 85 -19 380 274 151 150 280 284 288 299 23 45 18 100 -15 146 -16 22 -35
43 -41 47 -15 10 -4 23 43 48 l42 22 780 5 c778 5 780 5 834 27 30 13 77 37
104 55 52 36 972 1077 994 1126 27 61 7 204 -40 285 -38 65 -127 142 -192 166
-72 27 -176 35 -235 18z m176 -291 c21 -21 34 -44 34 -59 0 -18 -101 -140
-391 -473 -215 -247 -415 -473 -443 -502 -91 -95 -9 -86 -891 -92 -780 -5
-780 -5 -835 -27 -48 -20 -115 -59 -167 -98 -10 -7 -62 39 -210 188 l-198 197
340 341 c187 187 368 361 403 386 139 100 273 117 499 61 123 -30 139 -31 400
-37 255 -6 273 -7 300 -27 86 -64 88 -187 5 -249 -25 -19 -47 -20 -357 -25
-305 -5 -332 -6 -362 -25 -88 -52 -81 -180 11 -225 40 -19 60 -20 402 -20 211
0 373 4 394 10 21 6 213 149 485 360 l449 350 49 0 c42 0 54 -5 83 -34z
m-3081 -1266 l330 -330 -163 -162 -162 -163 -332 332 -332 332 159 161 c88 88
162 160 165 160 3 0 154 -149 335 -330z"/>
</g>
</svg>
