<?xml version="1.0" standalone="no"?>
<!DOCTYPE svg PUBLIC "-//W3C//DTD SVG 20010904//EN"
 "http://www.w3.org/TR/2001/REC-SVG-20010904/DTD/svg10.dtd">
<svg version="1.0" xmlns="http://www.w3.org/2000/svg"
 width="512.000000pt" height="512.000000pt" viewBox="0 0 512.000000 512.000000"
 preserveAspectRatio="xMidYMid meet">
<metadata>
Created by potrace 1.10, written by Peter Selinger 2001-2011
</metadata>
<g transform="translate(0.000000,512.000000) scale(0.050000,-0.050000)"
fill="#3b50c4" stroke="none">
<path d="M140 10106 c-111 -41 -166 -178 -112 -283 55 -106 84 -112 572 -123
l450 -10 109 -62 c195 -111 173 -55 907 -2269 l670 -2023 -50 -113 c-274 -616
-25 -1240 570 -1423 124 -39 190 -40 2263 -40 l2136 0 51 51 c92 93 80 272
-23 322 -18 10 -987 22 -2153 27 l-2120 10 -114 56 c-284 140 -390 469 -245
764 l59 120 220 23 c121 13 535 56 920 96 385 41 948 100 1250 132 303 32 775
81 1050 109 1148 117 1170 121 1419 267 383 224 422 312 764 1733 304 1267
287 1167 211 1252 l-60 68 -487 13 c-268 8 -1261 24 -2207 37 -3177 41 -4177
59 -4192 75 -8 8 -62 157 -118 330 -179 543 -402 779 -809 853 -119 22 -875
28 -931 8z m3649 -1647 c727 -12 2083 -32 3015 -46 932 -14 1700 -31 1707 -38
20 -20 -428 -1851 -484 -1977 -62 -141 -203 -281 -348 -347 -121 -55 -172 -62
-1249 -172 -319 -32 -926 -95 -1350 -139 -1749 -182 -1966 -202 -1980 -186 -9
9 -74 196 -145 416 -71 220 -284 868 -472 1440 -189 571 -343 1046 -343 1055
0 19 71 19 1649 -6z"/>
<path d="M2684 3219 c-873 -172 -1012 -1397 -200 -1769 942 -431 1774 780
1038 1511 -233 231 -521 320 -838 258z m360 -430 c289 -99 425 -437 288 -717
-190 -388 -734 -388 -924 1 -204 417 195 866 636 716z"/>
<path d="M6600 3204 c-696 -182 -930 -1060 -416 -1566 745 -734 1945 130 1494
1076 -187 392 -649 602 -1078 490z m440 -426 c498 -225 380 -944 -163 -993
-384 -35 -673 377 -510 725 123 262 423 381 673 268z"/>
</g>
</svg>
