<?xml version="1.0" encoding="UTF-8"?>
<svg version="1.1" viewBox="0 0 1600 1600" width="900" height="900" xmlns="http://www.w3.org/2000/svg">
<path transform="translate(770 175)" d="m0 0c23.1-0.631 42.7 1.98 61.2 17.1 0.78 0.605 1.56 1.21 2.36 1.83 13.7 11.2 22.4 28.8 24.6 46.2 1.64 19.5-1.99 39.9-14.7 55.4-2.63 3.02-5.43 5.81-8.32 8.58-1.02 1.01-1.02 1.01-2.06 2.05-18.2 17.1-41.1 18.3-64.7 19.4-82.4 3.87-160 25.5-231 68.6-0.764 0.46-1.53 0.92-2.31 1.39-21.9 13.2-42.4 28.7-61.7 45.6l-2.22 1.92c-1.94 1.68-3.86 3.38-5.78 5.08l-2.45 2.16c-13 11.7-26.1 23.8-36.8 37.6-1.75 2.24-3.6 4.31-5.53 6.4-6.21 6.92-11.7 14.4-17.2 21.9-0.538 0.719-1.08 1.44-1.63 2.18-12.7 17-24.1 34.8-34.1 53.4-0.882 1.65-1.77 3.3-2.67 4.94-8.57 15.7-15.8 31.9-22.6 48.4-0.381 0.925-0.763 1.85-1.16 2.8-31.3 76.4-37.7 161-26.8 242l0.315 2.43c6.9 52.4 25.1 105 50.5 151 1.26 2.29 2.51 4.59 3.75 6.89 4.78 8.78 9.81 17.3 15.3 25.6 1.13 1.71 2.24 3.44 3.35 5.16 9.85 15.2 21.1 29.7 32.8 43.5 0.878 1.06 1.76 2.13 2.63 3.19 0.934 1.12 1.87 2.25 2.8 3.37 0.824 0.991 1.65 1.98 2.5 3 2.61 3.02 5.43 5.83 8.26 8.65 0.9 0.897 1.8 1.79 2.73 2.72 1.03 1.02 1.03 1.02 2.08 2.07 0.00239-0.618 0.00478-1.24 0.00724-1.87 0.0593-15.1 0.135-30.2 0.228-45.2 0.0448-7.29 0.0843-14.6 0.111-21.9 0.0231-6.36 0.0566-12.7 0.102-19.1 0.0238-3.36 0.0411-6.73 0.0489-10.1 0.00968-3.77 0.0378-7.53 0.07-11.3-0.00144-1.1-0.00287-2.2-0.00435-3.33 0.23-19.1 8.19-37.1 21.2-51 7.72-7.4 16.4-13.1 26.3-17.2l2.95-1.25c8.02-2.84 15.7-3.13 24.2-3.18 1.08-0.0102 2.17-0.0203 3.29-0.0308 10.6 0.114 20.3 2.24 29.7 7.16 0.677 0.347 1.35 0.695 2.05 1.05 5.86 3.1 10.9 6.78 15.8 11.3 0.694 0.602 1.39 1.2 2.1 1.82 14.1 13 20.6 31.5 21.9 50.2 0.131 4.06 0.14 8.12 0.134 12.2 0.00227 1.18 0.00453 2.36 0.00687 3.57 0.0052 3.24 0.00599 6.48 0.00481 9.72-2.05e-4 3.51 0.00533 7.01 0.0101 10.5 0.00828 6.86 0.0111 13.7 0.0116 20.6 4.77e-4 5.58 0.00254 11.2 0.0057 16.7 0.0088 15.8 0.0134 31.7 0.0127 47.5-5.99e-5 1.28-5.99e-5 1.28-1.21e-4 2.58-4.09e-5 0.854-8.18e-5 1.71-1.24e-4 2.59-4.06e-4 13.8 0.00916 27.7 0.0233 41.5 0.0144 14.2 0.0213 28.5 0.0204 42.7-3.31e-4 7.98 0.00237 16 0.0132 23.9 0.00915 6.79 0.0112 13.6 0.00449 20.4-0.00324 3.46-0.0034 6.92 0.00535 10.4 0.0567 27.5-0.98 51.8-21 72.9-16.1 16.1-34.5 22.1-56.9 22.8-0.657 0.021-1.31 0.0419-1.99 0.0635-21.3 0.657-42.6 0.528-63.8 0.517-6.14-0.00258-12.3-1.71e-4 -18.4 0.00139-10.3 0.00181-20.6-5.46e-4 -30.9-0.00534-11.8-0.00542-23.6-0.00369-35.4 0.00183-10.2 0.00459-20.5 0.00515-30.7 0.00256-6.06-0.00153-12.1-0.00185-18.2 0.00154-22.6 0.0107-45.2-0.0188-67.9-0.409-1.91-0.0316-3.83-0.0589-5.74-0.0813-13.7-0.17-27.2-0.723-39.6-7.4-0.672-0.351-1.34-0.701-2.04-1.06-5.35-2.87-10.1-6.09-14.7-10.2-0.733-0.642-1.47-1.28-2.22-1.95-13.5-12.5-22.3-30.6-23-49.1-0.163-9.39 0.433-17.9 3.2-26.9 0.255-0.908 0.51-1.82 0.773-2.75 6.12-19.3 20.7-33.6 38.1-43.1 12.6-5.92 26.2-7.36 39.9-7.3 1.38-2.19e-4 1.38-2.19e-4 2.78-4.43e-4 3 6.9e-4 5.99 0.00844 8.99 0.0163 2.09 0.00187 4.19 0.00329 6.28 0.00429 5.48 0.0038 11 0.0136 16.4 0.0247 5.6 0.0103 11.2 0.0148 16.8 0.0198 11 0.0107 22 0.0277 32.9 0.0488-1.44-1.77-2.88-3.53-4.31-5.29-0.801-0.983-1.6-1.97-2.43-2.98-2.5-3.02-5.08-5.88-7.76-8.73-5.08-5.48-9.87-11.1-14.5-17-0.525-0.663-1.05-1.33-1.59-2.01-23.8-30.2-45-62.2-62.9-96.2-1.34-2.51-2.7-5.02-4.06-7.51-36.9-67.8-57.9-145-65.7-222-0.0815-0.791-0.163-1.58-0.247-2.4-2-19.7-2.65-39.3-2.63-59.2 6.04e-4 -1.09 0.00121-2.19 0.00183-3.32 0.121-81 15.1-163 53.2-252 0.495-1.11 0.99-2.21 1.5-3.35 9.64-21.5 20.2-42.5 32.5-62.6 0.501-0.827 1-1.65 1.52-2.51 6.72-11.1 13.6-21.9 21.1-32.5 1.46-2.08 2.91-4.16 4.35-6.25 6.38-9.17 13-18 20-26.7 0.528-0.659 1.06-1.32 1.6-2 6.58-8.22 13.3-16.3 20.4-24 1.67-1.83 3.34-3.66 5-5.5 0.742-0.815 1.48-1.63 2.25-2.47 1.79-1.91 1.79-1.91 2.75-4.03h2c0.273-0.598 0.546-1.2 0.827-1.81 1.14-2.13 2.24-3.5 3.93-5.19 0.555-0.558 1.11-1.12 1.68-1.69 0.898-0.888 0.898-0.888 1.81-1.79 0.622-0.621 1.24-1.24 1.88-1.88 1.32-1.31 2.64-2.63 3.96-3.94 2-1.98 3.99-3.97 5.98-5.96 6.14-6.12 12.3-12.1 18.9-17.7 1.78-1.62 3.55-3.24 5.31-4.88 5.4-4.92 11-9.55 16.7-14.1 1.17-0.948 2.33-1.9 3.5-2.84 8.06-6.53 16.3-12.8 24.7-18.8 1.76-1.27 3.52-2.55 5.28-3.83 8.96-6.51 18.2-12.6 27.5-18.5 1.01-0.642 2.02-1.28 3.05-1.95 76.2-47.7 161-78.1 318-95.1z" fill="#3b50c4"/>
<path transform="translate(1093 275)" d="m0 0c1.76-0.0034 1.76-0.0034 3.56-0.00687 3.23-0.00521 6.46-0.00599 9.7-0.00481 3.5 2.05e-4 6.99-0.00533 10.5-0.0101 6.84-0.00828 13.7-0.0111 20.5-0.0116 5.56-4.76e-4 11.1-0.00254 16.7-0.0057 15.8-0.0088 31.6-0.0134 47.4-0.0127 1.28 5.99e-5 1.28 5.99e-5 2.58 1.21e-4 1.28 6.13e-5 1.28 6.13e-5 2.58 1.24e-4 13.8 4.06e-4 27.6-0.00916 41.4-0.0233 14.2-0.0144 28.4-0.0213 42.6-0.0204 7.96 3.31e-4 15.9-0.00237 23.9-0.0132 6.78-0.00914 13.6-0.0113 20.3-0.00449 3.45 0.00325 6.9 0.00339 10.4-0.00535 23.4-0.0484 45.2-0.0821 64.9 14.3 0.779 0.534 1.56 1.07 2.36 1.62 14.9 10.7 24.6 28.6 28 46.4 2.95 21.7-2.3 41.6-15 59.3-11.7 15.2-28.3 24.3-47.1 27.4-8.06 1.03-16.3 0.879-24.4 0.968-2.1 0.0329-4.2 0.0667-6.3 0.101-20.8 0.318-41.7 0.315-62.5 0.211 0 3.86 1.01 4.41 3.56 7.25 7.77 9.23 14 19.6 20.4 29.8 0.886 1.38 1.77 2.76 2.66 4.13 23.2 36.4 41.6 74.8 57.3 115 0.369 0.937 0.737 1.87 1.12 2.84 26.4 67.7 38.1 143 38.1 215-9.06e-4 1.69-9.06e-4 1.69-0.00183 3.42-0.0252 17.3-0.45 34.5-2.19 51.8-0.131 1.37-0.261 2.75-0.391 4.12-6.73 70.6-24.1 142-55.6 206-0.306 0.626-0.612 1.25-0.928 1.9-6.97 14.2-14.4 28.2-22.1 42.1-0.619 1.14-1.24 2.28-1.88 3.45-4.47 8.16-9.26 16.1-14.2 23.9-0.86 1.35-0.86 1.35-1.74 2.74-3.89 6.07-7.96 12-12.1 17.9-0.51 0.72-1.02 1.44-1.54 2.18-10.9 15.4-22.3 30.4-34.7 44.6-2.57 2.96-5.04 6-7.5 9.06-3.17 3.91-6.48 7.52-10.1 11-1.83 1.85-3.51 3.75-5.21 5.72-4.54 5.23-9.44 10.1-14.3 15-0.903 0.907-1.81 1.81-2.74 2.75-4.56 4.55-9.17 8.97-14.1 13.2-2.59 2.23-5.08 4.57-7.58 6.9-4.67 4.31-9.47 8.4-14.4 12.4-2.85 2.31-5.65 4.67-8.45 7.05-7.22 6.02-14.7 11.6-22.3 17.2-1.09 0.803-1.09 0.803-2.2 1.62-10.7 7.87-21.6 15.3-32.8 22.4-1.11 0.692-1.11 0.692-2.23 1.4-9.77 6.09-19.7 11.9-29.7 17.5-2.08 1.16-4.15 2.34-6.22 3.53-41.8 23.8-87.5 40.8-134 53.6-1.07 0.297-2.15 0.595-3.25 0.901-30.4 8.29-61.5 13.3-92.7 17.1-1.6 0.199-1.6 0.199-3.24 0.402-28.7 3.46-53.6 2.92-77.3-15.3-14.7-12.7-24.5-30.6-26.3-50.1-0.0425-0.681-0.0851-1.36-0.129-2.06-0.0793-1.18-0.0793-1.18-0.16-2.38-0.649-19 5.98-37.5 18.5-51.8 18.4-19.7 38.9-25 64.9-27.5 93.9-9.09 184-44.6 269-115 0.697-0.597 1.39-1.19 2.11-1.81 14.1-12.1 27.9-25 39.9-39.2 0.9-1.04 1.8-2.07 2.7-3.11 21-24.2 39.2-50.3 55.3-77.9 0.438-0.752 0.877-1.5 1.33-2.28 19.8-34.3 34.5-71.5 44.7-110 0.29-1.07 0.579-2.14 0.878-3.25 23.9-89.8 19.5-186-23.9-309-0.426-0.968-0.853-1.94-1.29-2.93-22.7-55.9-22.7-55.9-59.7-99.1 0.00277 0.667 0.00553 1.33 0.00838 2.02 0.0665 16.3 0.116 32.6 0.147 48.9 0.0154 7.88 0.0364 15.8 0.0709 23.6 0.0301 6.87 0.0493 13.7 0.0559 20.6 0.00389 3.63 0.0129 7.27 0.0349 10.9 0.0245 4.07 0.0248 8.15 0.0234 12.2 0.0162 1.78 0.0162 1.78 0.0327 3.59-0.0798 21.9-8.15 40.6-23.4 56.1-0.603 0.628-1.21 1.26-1.83 1.9-9.64 9.25-22.4 14.2-35.2 17.1-1.15 0.286-1.15 0.286-2.32 0.578-19.7 3.1-39.3-1.23-55.7-12.7-16.1-12.6-28-30.1-30.8-50.7-0.516-5.12-0.621-10.3-0.78-15.4-0.021-0.663-0.0419-1.33-0.0635-2.01-0.586-19-0.529-38.1-0.517-57.1 0.00259-5.31 1.66e-4 -10.6-0.00139-15.9-0.00181-8.94 5.41e-4 -17.9 0.00534-26.8 0.00479-9.02 0.00486-18 0-27.1-0.0442-85.1-0.0442-85.1 0.402-125 0.0329-2.91 0.06-5.83 0.0813-8.74 0.0295-3.94 0.0829-7.88 0.139-11.8 9e-3 -1.67 9e-3 -1.67 0.0182-3.37 0.383-20.8 8.04-39 22.2-54.3 17.7-16.4 38.9-21.3 62.4-21.3z" fill="#3b50c4"/>
</svg>
