<?xml version="1.0" standalone="no"?><svg xmlns="http://www.w3.org/2000/svg" viewBox="0 0 1440 320"><path fill="#ffff" fill-opacity="1" d="M0,128L40,149.3C80,171,160,213,240,224C320,235,400,213,480,192C560,171,640,149,720,165.3C800,181,880,235,960,213.3C1040,192,1120,96,1200,69.3C1280,43,1360,85,1400,106.7L1440,128L1440,320L1400,320C1360,320,1280,320,1200,320C1120,320,1040,320,960,320C880,320,800,320,720,320C640,320,560,320,480,320C400,320,320,320,240,320C160,320,80,320,40,320L0,320Z"></path></svg>